# Blender v2.79 (sub 0) OBJ File: ''
# www.blender.org
mtllib coinRed.mtl
o Box06
v 0.074800 0.521300 -0.632100
v 1.820300 2.601500 -0.632100
v 0.074800 0.521300 0.632100
v 1.820300 2.601500 0.632100
v -1.820300 2.111500 -0.632100
v -0.074800 4.191600 -0.632099
v -1.820300 2.111500 0.632100
v -0.074800 4.191600 0.632101
v 1.820300 2.601500 0.632100
v -0.074800 4.191600 0.632101
v 0.074800 0.521300 0.632100
v -1.820300 2.111500 0.632100
vt 0.948100 -0.587500
vt 0.979100 -0.587500
vt 0.944100 -0.592600
vt 0.983200 -0.592600
vt 0.948200 -0.553000
vt 0.979100 -0.553000
vt 0.943900 -0.547500
vt 0.983800 -0.547300
vt 0.948400 -0.587000
vt 0.948400 -0.552600
vt 0.978700 -0.587000
vt 0.978700 -0.552600
vn 0.7660 -0.6428 -0.0000
vn -0.0000 0.0000 -1.0000
vn 0.6428 0.7661 0.0000
vn -0.6428 -0.7660 0.0000
vn -0.7660 0.6428 0.0000
vn 0.0000 -0.0000 1.0000
usemtl Box06Mat
s off
f 1/1/1 2/2/1 3/3/1
f 4/4/1 3/3/1 2/2/1
f 1/1/2 5/5/2 2/2/2
f 2/2/3 6/6/3 4/4/3
f 6/6/2 2/2/2 5/5/2
f 5/5/4 1/1/4 7/7/4
f 3/3/4 7/7/4 1/1/4
f 5/5/5 7/7/5 6/6/5
f 8/8/3 4/4/3 6/6/3
f 8/8/5 6/6/5 7/7/5
f 9/9/6 10/10/6 11/11/6
f 12/12/6 11/11/6 10/10/6
