# Noesis .obj export.
#
mtllib overgrowthTemple_prefab.mtl
g
v  -0.507325 -16.372520 -7.903136
v  7.137696 6.728487 3.984437
v  -3.122498 -17.240444 -3.226866
v  9.752808 7.596406 -0.691833
v  18.619020 29.465305 8.880736
v  16.003847 28.597380 13.557006
v  5.587157 11.327541 -6.730041
v  -0.507325 -16.372520 -7.903136
v  -5.276064 -12.650600 -13.205014
v  9.752808 7.596406 -0.691833
v  14.817383 33.229630 2.422668
v  18.619020 29.465305 8.880736
v  -2.001464 9.423497 5.218813
v  16.003847 28.597380 13.557006
v  6.573000 31.215931 15.259339
v  7.137696 6.728487 3.984437
v  -12.261597 -14.545429 -1.992489
v  -3.122498 -17.240444 -3.226866
v  -17.054750 -9.837572 -10.033993
v  -3.445985 14.582901 -7.070311
v  -13.706118 -9.386028 -14.281612
v  -6.794617 14.131351 -2.822690
v  2.071595 36.000252 6.749940
v  5.420228 36.451801 2.502259
v  -2.001464 9.423497 5.218813
v  -17.054750 -9.837572 -10.033993
v  -12.261597 -14.545429 -1.992489
v  -6.794617 14.131351 -2.822690
v  6.573000 31.215931 15.259339
v  2.071595 36.000252 6.749940
v  5.587157 11.327541 -6.730041
v  5.420228 36.451801 2.502259
v  14.817383 33.229630 2.422668
v  -5.276064 -12.650600 -13.205014
v  -3.445985 14.582901 -7.070311
v  5.587157 11.327541 -6.730041
v  5.420228 36.451801 2.502259
v  -13.706118 -9.386028 -14.281612
v  18.619020 29.465305 8.880736
v  6.573000 31.215931 15.259339
v  16.003847 28.597380 13.557006
v  5.420228 36.451801 2.502259
v  14.817383 33.229630 2.422668
v  2.071595 36.000252 6.749940
v  -9.820559 -38.517200 -15.114438
v  -3.122498 -17.240444 -3.226866
v  -12.435732 -39.385128 -10.438168
v  -0.507325 -16.372520 -7.903136
v  -5.276064 -12.650600 -13.205014
v  -9.820559 -38.517200 -15.114438
v  -14.571841 -34.854507 -20.437557
v  -0.507325 -16.372520 -7.903136
v  -21.574831 -36.690109 -9.203792
v  -3.122498 -17.240444 -3.226866
v  -12.261597 -14.545429 -1.992489
v  -12.435732 -39.385128 -10.438168
v  -26.367983 -31.982258 -17.245295
v  -13.706118 -9.386028 -14.281612
v  -23.019352 -31.530720 -21.492975
v  -17.054750 -9.837572 -10.033993
v  -12.261597 -14.545429 -1.992489
v  -26.367983 -31.982258 -17.245295
v  -21.574831 -36.690109 -9.203792
v  -17.054750 -9.837572 -10.033993
v  -14.571841 -34.854507 -20.437557
v  -13.706118 -9.386028 -14.281612
v  -5.276064 -12.650600 -13.205014
v  -23.019352 -31.530720 -21.492975
v  10.287838 -35.097157 -23.845276
v  -1.234499 -3.519894 -9.315855
v  -5.931765 -3.871433 -16.466856
v  14.550229 -34.941490 -16.746643
v  2.999815 -1.549463 -9.040832
v  14.550229 -34.941490 -16.746643
v  18.928770 -34.132637 -16.471621
v  -1.234499 -3.519894 -9.315855
v  6.088193 1.491535 -14.825744
v  18.928770 -34.132637 -16.471621
v  22.512936 -33.811005 -22.585268
v  2.999815 -1.549463 -9.040832
v  22.512936 -33.811005 -22.585268
v  2.534970 1.861465 -22.607969
v  6.088193 1.491535 -14.825744
v  20.071285 -34.313702 -30.038881
v  -1.673405 0.113626 -23.667173
v  20.071285 -34.313702 -30.038881
v  15.896235 -34.724285 -31.097961
v  2.534970 1.861465 -22.607969
v  -5.931765 -3.871433 -16.466856
v  15.896235 -34.724285 -31.097961
v  10.287838 -35.097157 -23.845276
v  -1.673405 0.113626 -23.667173
v  2.999815 -1.549463 -9.040832
v  -5.931765 -3.871433 -16.466856
v  -1.234499 -3.519894 -9.315855
v  2.534970 1.861465 -22.607969
v  6.088193 1.491535 -14.825744
v  -1.673405 0.113626 -23.667173

vt  0.687951 -0.754749 0.000000
vt  0.638763 -0.894639 0.000000
vt  0.638629 -0.754824 0.000000
vt  0.688079 -0.894558 0.000000
vt  0.688162 -0.995801 0.000000
vt  0.638209 -0.995830 0.000000
vt  0.749696 -0.894477 0.000000
vt  0.687951 -0.754749 0.000000
vt  0.749572 -0.754664 0.000000
vt  0.688079 -0.894558 0.000000
vt  0.749782 -0.995724 0.000000
vt  0.688162 -0.995801 0.000000
vt  0.561022 -0.894755 0.000000
vt  0.638209 -0.995830 0.000000
vt  0.557154 -0.996120 0.000000
vt  0.638763 -0.894639 0.000000
vt  0.560886 -0.754940 0.000000
vt  0.638629 -0.754824 0.000000
vt  0.687951 -0.754749 0.000000
vt  0.638763 -0.894639 0.000000
vt  0.638629 -0.754824 0.000000
vt  0.688079 -0.894558 0.000000
vt  0.688162 -0.995801 0.000000
vt  0.638209 -0.995830 0.000000
vt  0.749696 -0.894477 0.000000
vt  0.687951 -0.754749 0.000000
vt  0.749572 -0.754664 0.000000
vt  0.688079 -0.894558 0.000000
vt  0.749782 -0.995724 0.000000
vt  0.688162 -0.995801 0.000000
vt  0.561022 -0.894755 0.000000
vt  0.638209 -0.995830 0.000000
vt  0.557154 -0.996120 0.000000
vt  0.560886 -0.754940 0.000000
vt  0.638763 -0.894639 0.000000
vt  0.561022 -0.894755 0.000000
vt  0.638209 -0.995830 0.000000
vt  0.638629 -0.754824 0.000000
vt  0.716513 -0.905375 0.000000
vt  0.591816 -0.896907 0.000000
vt  0.675615 -0.926870 0.000000
vt  0.636038 -0.801335 0.000000
vt  0.712745 -0.842651 0.000000
vt  0.590979 -0.816523 0.000000
vt  0.687951 -0.754749 0.000000
vt  0.638763 -0.894639 0.000000
vt  0.638629 -0.754824 0.000000
vt  0.688079 -0.894558 0.000000
vt  0.749696 -0.894477 0.000000
vt  0.687951 -0.754749 0.000000
vt  0.749572 -0.754664 0.000000
vt  0.688079 -0.894558 0.000000
vt  0.560886 -0.754940 0.000000
vt  0.638763 -0.894639 0.000000
vt  0.561022 -0.894755 0.000000
vt  0.638629 -0.754824 0.000000
vt  0.687951 -0.754749 0.000000
vt  0.638763 -0.894639 0.000000
vt  0.638629 -0.754824 0.000000
vt  0.688079 -0.894558 0.000000
vt  0.749696 -0.894477 0.000000
vt  0.687951 -0.754749 0.000000
vt  0.749572 -0.754664 0.000000
vt  0.688079 -0.894558 0.000000
vt  0.560886 -0.754940 0.000000
vt  0.638763 -0.894639 0.000000
vt  0.561022 -0.894755 0.000000
vt  0.638629 -0.754824 0.000000
vt  0.635376 -1.000000 0.000000
vt  0.677143 -0.753525 0.000000
vt  0.634817 -0.753929 0.000000
vt  0.678594 -0.999630 0.000000
vt  0.704007 -0.753202 0.000000
vt  0.678594 -0.999630 0.000000
vt  0.705509 -0.999306 0.000000
vt  0.677143 -0.753525 0.000000
vt  0.749855 -0.753004 0.000000
vt  0.705509 -0.999306 0.000000
vt  0.750169 -0.999198 0.000000
vt  0.704007 -0.753202 0.000000
vt  0.504663 -0.999198 0.000000
vt  0.547437 -0.753325 0.000000
vt  0.504350 -0.753004 0.000000
vt  0.546137 -0.999429 0.000000
vt  0.573452 -0.753652 0.000000
vt  0.546137 -0.999429 0.000000
vt  0.571804 -0.999756 0.000000
vt  0.547437 -0.753325 0.000000
vt  0.634817 -0.753929 0.000000
vt  0.571804 -0.999756 0.000000
vt  0.635376 -1.000000 0.000000
vt  0.573452 -0.753652 0.000000
vt  0.716513 -0.905375 0.000000
vt  0.591816 -0.896907 0.000000
vt  0.675615 -0.926870 0.000000
vt  0.636038 -0.801335 0.000000
vt  0.712745 -0.842651 0.000000
vt  0.590979 -0.816523 0.000000

vn  0.920425 -0.339109 -0.194482
vn  0.484362 -0.473847 0.735434
vn  0.482401 -0.441414 0.756599
vn  0.928884 -0.334700 -0.158589
vn  0.936313 -0.338164 -0.094672
vn  0.475793 -0.514049 0.713705
vn  0.495225 0.094053 -0.863659
vn  0.920425 -0.339109 -0.194482
vn  0.475123 0.060897 -0.877810
vn  0.928884 -0.334700 -0.158589
vn  0.540985 0.130561 -0.830837
vn  0.936313 -0.338164 -0.094672
vn  -0.467348 -0.134022 0.873856
vn  0.475793 -0.514049 0.713705
vn  -0.464743 -0.204510 0.861504
vn  0.484362 -0.473847 0.735434
vn  -0.448067 -0.088883 0.889571
vn  0.482401 -0.441414 0.756599
vn  -0.924073 0.380297 0.038248
vn  -0.316569 0.433535 -0.843701
vn  -0.304260 0.400165 -0.864462
vn  -0.925810 0.377879 0.009120
vn  -0.929813 0.367381 0.021904
vn  -0.324534 0.479472 -0.815343
vn  -0.467348 -0.134022 0.873856
vn  -0.924073 0.380297 0.038248
vn  -0.448067 -0.088883 0.889571
vn  -0.925810 0.377879 0.009120
vn  -0.464743 -0.204510 0.861504
vn  -0.929813 0.367381 0.021904
vn  0.495225 0.094053 -0.863659
vn  -0.324534 0.479472 -0.815343
vn  0.540985 0.130561 -0.830837
vn  0.475123 0.060897 -0.877810
vn  -0.316569 0.433535 -0.843701
vn  0.495225 0.094053 -0.863659
vn  -0.324534 0.479472 -0.815343
vn  -0.304260 0.400165 -0.864462
vn  0.307896 0.889622 0.337303
vn  0.307897 0.889621 0.337304
vn  0.307896 0.889621 0.337305
vn  0.307898 0.889621 0.337303
vn  0.307897 0.889622 0.337301
vn  0.307901 0.889620 0.337303
vn  0.926205 -0.328726 -0.184615
vn  0.482401 -0.441414 0.756599
vn  0.462265 -0.444311 0.767397
vn  0.920425 -0.339109 -0.194482
vn  0.475123 0.060897 -0.877810
vn  0.926205 -0.328726 -0.184615
vn  0.483494 0.081280 -0.871566
vn  0.920425 -0.339109 -0.194482
vn  -0.462197 -0.092806 0.881908
vn  0.482401 -0.441414 0.756599
vn  -0.448067 -0.088883 0.889571
vn  0.462265 -0.444311 0.767397
vn  -0.926461 0.372841 0.051572
vn  -0.304260 0.400165 -0.864462
vn  -0.322561 0.413009 -0.851691
vn  -0.924073 0.380297 0.038248
vn  -0.448067 -0.088883 0.889571
vn  -0.926461 0.372841 0.051572
vn  -0.462197 -0.092806 0.881908
vn  -0.924073 0.380297 0.038248
vn  0.483494 0.081280 -0.871566
vn  -0.304260 0.400165 -0.864462
vn  0.475123 0.060897 -0.877810
vn  -0.322561 0.413009 -0.851691
vn  -0.893775 -0.423811 -0.146803
vn  -0.568686 0.220901 0.792338
vn  -0.980527 0.175672 0.087781
vn  -0.392894 -0.389547 0.832999
vn  0.118011 0.545878 0.829512
vn  -0.392894 -0.389547 0.832999
vn  0.566919 0.080482 0.819833
vn  -0.568686 0.220901 0.792338
vn  0.455319 0.861696 0.223976
vn  0.566919 0.080482 0.819833
vn  0.906448 0.421014 0.033164
vn  0.118011 0.545878 0.829512
vn  0.906448 0.421014 0.033164
vn  0.157372 0.880028 -0.448091
vn  0.455319 0.861696 0.223976
vn  0.602997 0.435066 -0.668664
vn  -0.569997 0.551496 -0.609061
vn  0.602997 0.435066 -0.668664
vn  -0.202249 0.106528 -0.973523
vn  0.157372 0.880028 -0.448091
vn  -0.980527 0.175672 0.087781
vn  -0.202249 0.106528 -0.973523
vn  -0.893775 -0.423811 -0.146803
vn  -0.569997 0.551496 -0.609061
vn  0.118011 0.545878 0.829512
vn  -0.980527 0.175672 0.087781
vn  -0.568686 0.220901 0.792338
vn  0.157372 0.880028 -0.448091
vn  0.455319 0.861696 0.223976
vn  -0.569997 0.551496 -0.609061

g Object95-Pivot
usemtl Temple Run Material
f  1/1/1 2/2/2 3/3/3
f  4/4/4 2/2/2 1/1/1
f  5/5/5 2/2/2 4/4/4
f  6/6/6 2/2/2 5/5/5
f  7/7/7 8/8/8 9/9/9
f  10/10/10 8/8/8 7/7/7
f  11/11/11 10/10/10 7/7/7
f  12/12/12 10/10/10 11/11/11
f  13/13/13 14/14/14 15/15/15
f  16/16/16 14/14/14 13/13/13
f  17/17/17 16/16/16 13/13/13
f  18/18/18 16/16/16 17/17/17
f  19/19/19 20/20/20 21/21/21
f  22/22/22 20/20/20 19/19/19
f  23/23/23 20/20/20 22/22/22
f  24/24/24 20/20/20 23/23/23
f  25/25/25 26/26/26 27/27/27
f  28/28/28 26/26/26 25/25/25
f  29/29/29 28/28/28 25/25/25
f  30/30/30 28/28/28 29/29/29
f  31/31/31 32/32/32 33/33/33
f  34/34/34 35/35/35 36/36/36
f  35/35/35 37/37/37 36/36/36
f  38/38/38 35/35/35 34/34/34
f  39/39/39 40/40/40 41/41/41
f  42/42/42 40/40/40 39/39/39
f  43/43/43 42/42/42 39/39/39
f  44/44/44 40/40/40 42/42/42
f  45/45/45 46/46/46 47/47/47
f  48/48/48 46/46/46 45/45/45
f  49/49/49 50/50/50 51/51/51
f  52/52/52 50/50/50 49/49/49
f  53/53/53 54/54/54 55/55/55
f  56/56/56 54/54/54 53/53/53
f  57/57/57 58/58/58 59/59/59
f  60/60/60 58/58/58 57/57/57
f  61/61/61 62/62/62 63/63/63
f  64/64/64 62/62/62 61/61/61
f  65/65/65 66/66/66 67/67/67
f  68/68/68 66/66/66 65/65/65
f  69/69/69 70/70/70 71/71/71
f  72/72/72 70/70/70 69/69/69
f  73/73/73 74/74/74 75/75/75
f  76/76/76 74/74/74 73/73/73
f  77/77/77 78/78/78 79/79/79
f  80/80/80 78/78/78 77/77/77
f  81/81/81 82/82/82 83/83/83
f  84/84/84 82/82/82 81/81/81
f  85/85/85 86/86/86 87/87/87
f  88/88/88 86/86/86 85/85/85
f  89/89/89 90/90/90 91/91/91
f  92/92/92 90/90/90 89/89/89
f  93/93/93 94/94/94 95/95/95
f  96/96/96 94/94/94 93/93/93
f  97/97/97 96/96/96 93/93/93
f  98/98/98 94/94/94 96/96/96

g
