# Noesis .obj export.
#
mtllib templeHead_prefab.mtl
g
v  9.993774 -18.273727 -2.080505
v  12.779419 -30.970886 -11.162964
v  10.253418 -29.951607 -14.967957
v  7.054993 -19.846786 -8.447083
v  11.431824 -23.524239 0.244873
v  6.248901 -16.257996 4.105835
v  8.343079 -21.308907 8.956177
v  7.852478 -25.598228 11.126526
v  10.172119 -30.465279 2.963196
v  8.724609 -16.065239 -3.861145
v  6.481262 -14.634979 -4.558350
v  7.340942 -15.432396 -1.275696
v  5.957031 -14.799591 1.309998
v  5.312073 -13.675529 -0.836731
v  -0.245361 -20.532341 13.944946
v  7.852478 -25.598228 11.126526
v  8.343079 -21.308907 8.956177
v  6.248901 -16.257996 4.105835
v  -0.499268 -16.130562 6.888977
v  -0.010010 -24.240456 15.898193
v  5.957031 -14.799591 1.309998
v  4.341980 -14.875679 1.951050
v  5.312073 -13.675529 -0.836731
v  2.103027 -15.153877 2.658142
v  3.222351 -15.014687 2.304321
v  -0.499268 -16.130562 6.888977
v  6.248901 -16.257996 4.105835
v  -0.550720 -15.107132 3.873047
v  2.103027 -15.153877 2.658142
v  -0.584900 -14.379791 1.268738
v  -3.161682 -15.502914 2.629333
v  -5.410461 -15.522400 1.898315
v  -7.140991 -17.145821 4.033508
v  -7.014221 -15.659737 1.240112
v  -6.500305 -14.458656 -0.900330
v  -0.245361 -20.532341 13.944946
v  -8.601929 -22.432472 8.864441
v  -0.584900 -14.379791 1.268738
v  2.103027 -15.153877 2.658142
v  0.990906 -14.454430 0.854553
v  7.340942 -15.432396 -1.275696
v  6.481262 -14.634979 -4.558350
v  5.551025 -17.102737 -1.430969
v  7.340942 -15.432396 -1.275696
v  5.551025 -17.102737 -1.430969
v  5.312073 -13.675529 -0.836731
v  4.341980 -14.875679 1.951050
v  5.312073 -13.675529 -0.836731
v  3.976013 -15.829262 0.552246
v  2.103027 -15.153877 2.658142
v  2.784180 -13.692390 -0.164917
v  0.903259 -18.032837 1.902466
v  3.222351 -15.014687 2.304321
v  4.341980 -14.875679 1.951050
v  2.784180 -13.692390 -0.164917
v  2.103027 -15.153877 2.658142
v  4.341980 -14.875679 1.951050
v  3.976013 -15.829262 0.552246
v  2.784180 -13.692390 -0.164917
v  2.103027 -15.153877 2.658142
v  0.903259 -18.032837 1.902466
v  0.990906 -14.454430 0.854553
v  -0.090332 -21.968063 2.873169
v  3.976013 -15.829262 0.552246
v  5.551025 -17.102737 -1.430969
v  0.903259 -18.032837 1.902466
v  -0.584900 -14.379791 1.268738
v  0.990906 -14.454430 0.854553
v  5.312073 -13.675529 -0.836731
v  2.784180 -13.692390 -0.164917
v  -11.981689 -32.612663 -11.296753
v  -11.277954 -25.029869 0.122437
v  -10.520386 -19.633812 -2.191101
v  -7.140991 -17.145821 4.033508
v  -9.434143 -31.329521 2.917114
v  -7.572937 -26.621132 11.043457
v  -8.601929 -22.432472 8.864441
v  -9.602295 -31.268211 -15.075073
v  -7.331299 -20.800606 -8.524719
v  -9.534668 -17.275841 -3.959839
v  -7.492737 -15.561501 -4.633362
v  -8.274902 -16.467628 -1.359985
v  -7.014221 -15.659737 1.240112
v  -6.500305 -14.458656 -0.900330
v  -7.572937 -26.621132 11.043457
v  -0.245361 -20.532341 13.944946
v  -8.601929 -22.432472 8.864441
v  -0.010010 -24.240456 15.898193
v  -3.161682 -15.502914 2.629333
v  -0.584900 -14.379791 1.268738
v  -2.132874 -14.661415 0.837952
v  -7.492737 -15.561501 -4.633362
v  -8.274902 -16.467628 -1.359985
v  -6.278442 -17.887039 -1.494934
v  -6.278442 -17.887039 -1.494934
v  -8.274902 -16.467628 -1.359985
v  -6.500305 -14.458656 -0.900330
v  -6.500305 -14.458656 -0.900330
v  -5.410461 -15.522400 1.898315
v  -4.906616 -16.418221 0.504028
v  -3.999634 -14.142242 -0.201599
v  -3.161682 -15.502914 2.629333
v  -1.585083 -18.197792 1.889526
v  -5.410461 -15.522400 1.898315
v  -4.286255 -15.512489 2.263916
v  -3.999634 -14.142242 -0.201599
v  -3.161682 -15.502914 2.629333
v  -4.286255 -15.512489 2.263916
v  -5.410461 -15.522400 1.898315
v  -3.161682 -15.502914 2.629333
v  -4.906616 -16.418221 0.504028
v  -5.410461 -15.522400 1.898315
v  -3.999634 -14.142242 -0.201599
v  -1.585083 -18.197792 1.889526
v  -3.161682 -15.502914 2.629333
v  -2.132874 -14.661415 0.837952
v  -6.278442 -17.887039 -1.494934
v  -7.331299 -20.800606 -8.524719
v  -7.492737 -15.561501 -4.633362
v  -6.500305 -14.458656 -0.900330
v  -4.906616 -16.418221 0.504028
v  -0.090332 -21.968063 2.873169
v  -1.585083 -18.197792 1.889526
v  -3.999634 -14.142242 -0.201599
v  -0.584900 -14.379791 1.268738
v  -2.132874 -14.661415 0.837952
v  7.605652 -32.306610 12.001709
v  10.172119 -30.465279 2.963196
v  7.852478 -25.598228 11.126526
v  7.605652 -32.306610 12.001709
v  7.852478 -25.598228 11.126526
v  -0.010010 -24.240456 15.898193
v  -7.842773 -32.123741 11.436218
v  -7.572937 -26.621132 11.043457
v  -9.434143 -31.329521 2.917114
v  -0.317139 -33.956070 16.578064
v  -0.010010 -24.240456 15.898193
v  -7.572937 -26.621132 11.043457
v  -7.842773 -32.123741 11.436218
v  -0.317139 -33.956070 16.578064
v  7.605652 -32.306610 12.001709
v  -0.010010 -24.240456 15.898193
v  10.253418 -29.951607 -14.967957
v  -0.981873 -32.486290 -11.533020
v  -0.981934 -25.726631 -6.047119
v  7.054993 -19.846786 -8.447083
v  -0.090332 -21.968063 2.873169
v  5.551025 -17.102737 -1.430969
v  -0.981873 -32.486290 -11.533020
v  -9.602295 -31.268211 -15.075073
v  -7.331299 -20.800606 -8.524719
v  -0.981934 -25.726631 -6.047119
v  -6.278442 -17.887039 -1.494934
v  -0.090332 -21.968063 2.873169
v  7.054993 -19.846786 -8.447083
v  5.551025 -17.102737 -1.430969
v  6.481262 -14.634979 -4.558350

vt  0.853830 -0.325218 0.000000
vt  0.982334 -0.446641 0.000000
vt  0.833782 -0.421351 0.000000
vt  0.791695 -0.367733 0.000000
vt  0.923867 -0.331627 0.000000
vt  0.845935 -0.249462 0.000000
vt  0.931349 -0.241630 0.000000
vt  0.985619 -0.225959 0.000000
vt  0.996745 -0.342813 0.000000
vt  0.817240 -0.322633 0.000000
vt  0.798580 -0.310825 0.000000
vt  0.817067 -0.291093 0.000000
vt  0.816893 -0.259553 0.000000
vt  0.795067 -0.269700 0.000000
vt  0.902183 -0.110943 0.000000
vt  0.985619 -0.225959 0.000000
vt  0.931349 -0.241630 0.000000
vt  0.845935 -0.249462 0.000000
vt  0.816179 -0.156426 0.000000
vt  0.951730 -0.096845 0.000000
vt  0.816893 -0.259553 0.000000
vt  0.815788 -0.236457 0.000000
vt  0.795067 -0.269700 0.000000
vt  0.802729 -0.203791 0.000000
vt  0.802924 -0.221428 0.000000
vt  0.816179 -0.156426 0.000000
vt  0.845935 -0.249462 0.000000
vt  0.793097 -0.164561 0.000000
vt  0.802729 -0.203791 0.000000
vt  0.779317 -0.170398 0.000000
vt  0.802729 -0.203791 0.000000
vt  0.815788 -0.236457 0.000000
vt  0.845935 -0.249462 0.000000
vt  0.816893 -0.259553 0.000000
vt  0.795067 -0.269700 0.000000
vt  0.902183 -0.110943 0.000000
vt  0.931349 -0.241630 0.000000
vt  0.779317 -0.170398 0.000000
vt  0.802729 -0.203791 0.000000
vt  0.779083 -0.197786 0.000000
vt  0.817067 -0.291093 0.000000
vt  0.798580 -0.310825 0.000000
vt  0.797728 -0.284245 0.000000
vt  0.817067 -0.291093 0.000000
vt  0.797728 -0.284245 0.000000
vt  0.795067 -0.269700 0.000000
vt  0.815788 -0.236457 0.000000
vt  0.795067 -0.269700 0.000000
vt  0.789495 -0.239558 0.000000
vt  0.802729 -0.203791 0.000000
vt  0.786502 -0.226659 0.000000
vt  0.783445 -0.206544 0.000000
vt  0.802924 -0.221428 0.000000
vt  0.815788 -0.236457 0.000000
vt  0.786502 -0.226659 0.000000
vt  0.802729 -0.203791 0.000000
vt  0.815788 -0.236457 0.000000
vt  0.789495 -0.239558 0.000000
vt  0.786502 -0.226659 0.000000
vt  0.802729 -0.203791 0.000000
vt  0.783445 -0.206544 0.000000
vt  0.779083 -0.197786 0.000000
vt  0.477473 -0.585546 0.000000
vt  0.359915 -0.560258 0.000000
vt  0.341947 -0.592493 0.000000
vt  0.423092 -0.556300 0.000000
vt  0.401731 -0.509624 0.000000
vt  0.382294 -0.522910 0.000000
vt  0.314820 -0.554823 0.000000
vt  0.348885 -0.529808 0.000000
vt  0.899628 -0.434035 0.000000
vt  0.923867 -0.331627 0.000000
vt  0.853830 -0.325218 0.000000
vt  0.845935 -0.249462 0.000000
vt  0.996745 -0.342813 0.000000
vt  0.985619 -0.225959 0.000000
vt  0.931349 -0.241630 0.000000
vt  0.794235 -0.423260 0.000000
vt  0.791695 -0.367733 0.000000
vt  0.817240 -0.322633 0.000000
vt  0.798580 -0.310825 0.000000
vt  0.817067 -0.291093 0.000000
vt  0.816893 -0.259553 0.000000
vt  0.795067 -0.269700 0.000000
vt  0.985619 -0.225959 0.000000
vt  0.902183 -0.110943 0.000000
vt  0.931349 -0.241630 0.000000
vt  0.951730 -0.096845 0.000000
vt  0.802729 -0.203791 0.000000
vt  0.779317 -0.170398 0.000000
vt  0.779083 -0.197786 0.000000
vt  0.798580 -0.310825 0.000000
vt  0.817067 -0.291093 0.000000
vt  0.797728 -0.284245 0.000000
vt  0.797728 -0.284245 0.000000
vt  0.817067 -0.291093 0.000000
vt  0.795067 -0.269700 0.000000
vt  0.795067 -0.269700 0.000000
vt  0.815788 -0.236457 0.000000
vt  0.789495 -0.239558 0.000000
vt  0.786502 -0.226659 0.000000
vt  0.802729 -0.203791 0.000000
vt  0.783445 -0.206544 0.000000
vt  0.815788 -0.236457 0.000000
vt  0.802924 -0.221428 0.000000
vt  0.786502 -0.226659 0.000000
vt  0.802729 -0.203791 0.000000
vt  0.802924 -0.221428 0.000000
vt  0.815788 -0.236457 0.000000
vt  0.802729 -0.203791 0.000000
vt  0.789495 -0.239558 0.000000
vt  0.815788 -0.236457 0.000000
vt  0.786502 -0.226659 0.000000
vt  0.783445 -0.206544 0.000000
vt  0.802729 -0.203791 0.000000
vt  0.779083 -0.197786 0.000000
vt  0.342916 -0.591850 0.000000
vt  0.302105 -0.681408 0.000000
vt  0.279907 -0.602312 0.000000
vt  0.316206 -0.554109 0.000000
vt  0.361058 -0.560087 0.000000
vt  0.478475 -0.585835 0.000000
vt  0.424007 -0.556773 0.000000
vt  0.350319 -0.529609 0.000000
vt  0.401338 -0.510586 0.000000
vt  0.382144 -0.524323 0.000000
vt  0.359142 -0.345442 0.000000
vt  0.498830 -0.458094 0.000000
vt  0.487704 -0.341240 0.000000
vt  0.359142 -0.345442 0.000000
vt  0.487704 -0.341240 0.000000
vt  0.453815 -0.212126 0.000000
vt  0.359142 -0.345442 0.000000
vt  0.487704 -0.341240 0.000000
vt  0.498830 -0.458094 0.000000
vt  0.325253 -0.216328 0.000000
vt  0.453815 -0.212126 0.000000
vt  0.487704 -0.341240 0.000000
vt  0.359142 -0.345442 0.000000
vt  0.325253 -0.216328 0.000000
vt  0.359142 -0.345442 0.000000
vt  0.453815 -0.212126 0.000000
vt  0.295309 -0.837211 0.000000
vt  0.482423 -0.812530 0.000000
vt  0.461916 -0.705635 0.000000
vt  0.302848 -0.682795 0.000000
vt  0.477473 -0.585546 0.000000
vt  0.341947 -0.592493 0.000000
vt  0.481989 -0.812555 0.000000
vt  0.298804 -0.837215 0.000000
vt  0.302105 -0.681408 0.000000
vt  0.462490 -0.706953 0.000000
vt  0.342916 -0.591850 0.000000
vt  0.478475 -0.585835 0.000000
vt  0.302848 -0.682795 0.000000
vt  0.341947 -0.592493 0.000000
vt  0.279027 -0.603928 0.000000

vn  0.896749 0.442167 0.018127
vn  0.908291 0.336570 -0.248452
vn  0.774013 0.476876 -0.416524
vn  0.727658 0.478221 -0.491751
vn  0.969272 0.167829 0.179850
vn  0.519423 0.754739 0.400709
vn  0.744423 0.429891 0.510909
vn  0.770847 0.209248 0.601673
vn  0.965312 -0.077552 0.249314
vn  0.773373 0.585825 -0.242286
vn  0.354711 0.904342 -0.237374
vn  0.449498 0.893241 0.008455
vn  0.466412 0.813772 0.346749
vn  -0.168410 0.879818 -0.444475
vn  -0.045280 0.619096 0.784009
vn  0.770847 0.209248 0.601673
vn  0.744423 0.429891 0.510909
vn  0.519423 0.754739 0.400709
vn  -0.061533 0.891300 0.449220
vn  -0.035532 0.463986 0.885130
vn  0.466412 0.813772 0.346749
vn  0.060056 0.942714 0.328152
vn  -0.168410 0.879818 -0.444475
vn  0.017626 0.982305 0.186456
vn  0.011176 0.917943 0.396555
vn  -0.061533 0.891300 0.449220
vn  0.519423 0.754739 0.400709
vn  -0.064759 0.952307 0.298190
vn  0.017626 0.982305 0.186456
vn  -0.051125 0.816354 -0.575285
vn  -0.149120 0.971272 0.185454
vn  -0.187518 0.926293 0.326831
vn  -0.618780 0.679279 0.394578
vn  -0.573411 0.744841 0.341191
vn  0.055568 0.894704 -0.443190
vn  -0.045280 0.619096 0.784009
vn  -0.800093 0.327528 0.502570
vn  -0.051125 0.816354 -0.575285
vn  0.017626 0.982305 0.186456
vn  0.334490 0.593108 -0.732352
vn  0.449498 0.893241 0.008455
vn  0.354711 0.904342 -0.237374
vn  -0.710106 0.357290 -0.606707
vn  0.449498 0.893241 0.008455
vn  -0.710106 0.357290 -0.606707
vn  -0.168410 0.879818 -0.444475
vn  0.060056 0.942714 0.328152
vn  -0.168410 0.879818 -0.444475
vn  -0.474565 0.156283 -0.866235
vn  0.017626 0.982305 0.186456
vn  -0.125076 0.743169 -0.657310
vn  -0.204829 -0.174877 -0.963049
vn  0.011176 0.917943 0.396555
vn  0.060056 0.942714 0.328152
vn  -0.125076 0.743169 -0.657310
vn  0.017626 0.982305 0.186456
vn  0.060056 0.942714 0.328152
vn  -0.474565 0.156283 -0.866235
vn  -0.125076 0.743169 -0.657310
vn  0.017626 0.982305 0.186456
vn  -0.204829 -0.174877 -0.963049
vn  0.334490 0.593108 -0.732352
vn  0.007327 -0.029382 -0.999541
vn  -0.474565 0.156283 -0.866235
vn  -0.710106 0.357290 -0.606707
vn  -0.204829 -0.174877 -0.963049
vn  -0.051125 0.816354 -0.575285
vn  0.334490 0.593108 -0.732352
vn  -0.168410 0.879818 -0.444475
vn  -0.125076 0.743169 -0.657310
vn  -0.938976 0.242012 -0.244449
vn  -0.981704 0.055820 0.182048
vn  -0.944801 0.327381 0.013155
vn  -0.618780 0.679279 0.394578
vn  -0.953306 -0.167552 0.251263
vn  -0.794112 0.116452 0.596511
vn  -0.800093 0.327528 0.502570
vn  -0.820943 0.393468 -0.413806
vn  -0.643657 0.481190 -0.595115
vn  -0.841292 0.478748 -0.251052
vn  0.211915 0.904546 -0.369984
vn  -0.563710 0.825967 0.003049
vn  -0.573411 0.744841 0.341191
vn  0.055568 0.894704 -0.443190
vn  -0.794112 0.116452 0.596511
vn  -0.045280 0.619096 0.784009
vn  -0.800093 0.327528 0.502570
vn  -0.035532 0.463986 0.885130
vn  -0.149120 0.971272 0.185454
vn  -0.051125 0.816354 -0.575285
vn  -0.402055 0.544380 -0.736208
vn  0.211915 0.904546 -0.369984
vn  -0.563710 0.825967 0.003049
vn  0.755703 0.396880 -0.520960
vn  0.755703 0.396880 -0.520960
vn  -0.563710 0.825967 0.003049
vn  0.055568 0.894704 -0.443190
vn  0.055568 0.894704 -0.443190
vn  -0.187518 0.926293 0.326831
vn  0.459107 0.218211 -0.861165
vn  0.032997 0.753624 -0.656477
vn  -0.149120 0.971272 0.185454
vn  0.236495 -0.145501 -0.960677
vn  -0.187518 0.926293 0.326831
vn  -0.305722 0.175279 0.935848
vn  0.032997 0.753624 -0.656477
vn  -0.149120 0.971272 0.185454
vn  -0.305722 0.175279 0.935848
vn  -0.187518 0.926293 0.326831
vn  -0.149120 0.971272 0.185454
vn  0.459107 0.218211 -0.861165
vn  -0.187518 0.926293 0.326831
vn  0.032997 0.753624 -0.656477
vn  0.236495 -0.145501 -0.960677
vn  -0.149120 0.971272 0.185454
vn  -0.402055 0.544380 -0.736208
vn  0.755703 0.396880 -0.520960
vn  -0.643657 0.481190 -0.595115
vn  0.211915 0.904546 -0.369984
vn  0.055568 0.894704 -0.443190
vn  0.459107 0.218211 -0.861165
vn  0.007327 -0.029382 -0.999541
vn  0.236495 -0.145501 -0.960677
vn  0.032997 0.753624 -0.656477
vn  -0.051125 0.816354 -0.575285
vn  -0.402055 0.544380 -0.736208
vn  0.961958 0.000248 0.273196
vn  0.961958 0.000248 0.273197
vn  0.961958 0.000248 0.273196
vn  0.528084 0.090722 0.844332
vn  0.528084 0.090722 0.844332
vn  0.528084 0.090722 0.844332
vn  -0.980082 0.061538 0.188817
vn  -0.980082 0.061538 0.188817
vn  -0.980082 0.061538 0.188817
vn  -0.555377 0.075509 0.828163
vn  -0.555377 0.075509 0.828163
vn  -0.555377 0.075509 0.828163
vn  -0.547634 0.086259 0.832260
vn  0.492583 0.045245 0.869089
vn  0.492583 0.045245 0.869089
vn  0.492583 0.045245 0.869089
vn  -0.436164 0.465797 -0.769931
vn  0.088727 0.573714 -0.814236
vn  0.098320 0.746518 -0.658060
vn  -0.618330 0.531580 -0.578871
vn  -0.064679 0.898113 -0.434983
vn  -0.752626 0.542311 -0.373434
vn  0.088727 0.573714 -0.814236
vn  0.394799 0.424304 -0.814923
vn  0.597116 0.575688 -0.558602
vn  0.098320 0.746518 -0.658060
vn  0.665271 0.656222 -0.356071
vn  -0.064679 0.898113 -0.434983
vn  -0.969700 0.068271 -0.234565
vn  -0.969700 0.068271 -0.234565
vn  -0.969700 0.068271 -0.234565

g Object282-Pivot
usemtl Temple Run Material
f  1/1/1 2/2/2 3/3/3
f  3/3/3 4/4/4 1/1/1
f  1/1/1 5/5/5 2/2/2
f  6/6/6 5/5/5 1/1/1
f  6/6/6 7/7/7 5/5/5
f  7/7/7 8/8/8 5/5/5
f  5/5/5 9/9/9 2/2/2
f  8/8/8 9/9/9 5/5/5
f  6/6/6 1/1/1 10/10/10
f  4/4/4 10/10/10 1/1/1
f  4/4/4 11/11/11 10/10/10
f  12/12/12 10/10/10 11/11/11
f  6/6/6 10/10/10 12/12/12
f  6/6/6 12/12/12 13/13/13
f  13/13/13 12/12/12 14/14/14
f  15/15/15 16/16/16 17/17/17
f  15/15/15 17/17/17 18/18/18
f  15/15/15 18/18/18 19/19/19
f  20/20/20 16/16/16 15/15/15
f  18/18/18 21/21/21 22/22/22
f  22/22/22 21/21/21 23/23/23
f  18/18/18 22/22/22 24/24/24
f  22/22/22 25/25/25 24/24/24
f  26/26/26 27/27/27 28/28/28
f  27/27/27 29/29/29 28/28/28
f  30/30/30 28/28/28 29/29/29
f  28/28/28 30/30/30 31/31/31
f  31/31/31 32/32/32 33/33/33
f  33/33/33 26/26/26 28/28/28
f  31/31/31 33/33/33 28/28/28
f  32/32/32 34/34/34 33/33/33
f  34/34/34 32/32/32 35/35/35
f  33/33/33 36/36/36 26/26/26
f  37/37/37 36/36/36 33/33/33
f  38/38/38 39/39/39 40/40/40
f  41/41/41 42/42/42 43/43/43
f  44/44/44 45/45/45 46/46/46
f  47/47/47 48/48/48 49/49/49
f  50/50/50 51/51/51 52/52/52
f  53/53/53 54/54/54 55/55/55
f  56/56/56 53/53/53 55/55/55
f  57/57/57 58/58/58 59/59/59
f  60/60/60 61/61/61 62/62/62
f  63/63/63 64/64/64 65/65/65
f  63/63/63 66/66/66 64/64/64
f  63/63/63 67/67/67 66/66/66
f  67/67/67 68/68/68 66/66/66
f  64/64/64 69/69/69 65/65/65
f  66/66/66 70/70/70 64/64/64
f  71/71/71 72/72/72 73/73/73
f  72/72/72 74/74/74 73/73/73
f  71/71/71 75/75/75 72/72/72
f  75/75/75 76/76/76 72/72/72
f  77/77/77 74/74/74 72/72/72
f  76/76/76 77/77/77 72/72/72
f  73/73/73 78/78/78 71/71/71
f  79/79/79 78/78/78 73/73/73
f  80/80/80 73/73/73 74/74/74
f  80/80/80 79/79/79 73/73/73
f  81/81/81 79/79/79 80/80/80
f  82/82/82 80/80/80 74/74/74
f  80/80/80 82/82/82 81/81/81
f  82/82/82 74/74/74 83/83/83
f  82/82/82 83/83/83 84/84/84
f  85/85/85 86/86/86 87/87/87
f  85/85/85 88/88/88 86/86/86
f  89/89/89 90/90/90 91/91/91
f  92/92/92 93/93/93 94/94/94
f  95/95/95 96/96/96 97/97/97
f  98/98/98 99/99/99 100/100/100
f  101/101/101 102/102/102 103/103/103
f  104/104/104 105/105/105 106/106/106
f  105/105/105 107/107/107 106/106/106
f  108/108/108 109/109/109 110/110/110
f  111/111/111 112/112/112 113/113/113
f  114/114/114 115/115/115 116/116/116
f  117/117/117 118/118/118 119/119/119
f  120/120/120 121/121/121 117/117/117
f  121/121/121 122/122/122 117/117/117
f  123/123/123 122/122/122 121/121/121
f  124/124/124 123/123/123 121/121/121
f  125/125/125 122/122/122 123/123/123
f  126/126/126 125/125/125 123/123/123
f  127/127/127 128/128/128 129/129/129
f  130/130/130 131/131/131 132/132/132
f  133/133/133 134/134/134 135/135/135
f  136/136/136 137/137/137 138/138/138
f  139/139/139 136/136/136 138/138/138
f  140/140/140 141/141/141 142/142/142
f  143/143/143 144/144/144 145/145/145
f  146/146/146 143/143/143 145/145/145
f  146/146/146 145/145/145 147/147/147
f  148/148/148 146/146/146 147/147/147
f  149/149/149 150/150/150 151/151/151
f  152/152/152 149/149/149 151/151/151
f  152/152/152 151/151/151 153/153/153
f  154/154/154 152/152/152 153/153/153
f  155/155/155 156/156/156 157/157/157

g
